<svg xmlns="http://www.w3.org/2000/svg" id="Layer_1" x="0" y="0" version="1.1" viewBox="0 0 20 20" xml:space="preserve">
  <path d="M10 0C4.5 0 0 4.5 0 10s4.5 10 10 10 10-4.5 10-10S15.5 0 10 0z" class="st0"/>
  <path fill="#7cb342" d="M10 19.2C4.9 19.2.8 15.1.8 10S4.9.8 10 .8s9.2 4.1 9.2 9.2-4.1 9.2-9.2 9.2z"/>
  <path fill="#fff" d="M1.7 10.8c0-5.1 4.1-9.2 9.1-9.2 2.2 0 4.4.8 6.1 2.3C13.5.2 7.8-.2 4 3.1S-.2 12.2 3.1 16l.9.9c-1.5-1.7-2.3-3.8-2.3-6.1z" opacity=".2"/>
  <path d="M15.1 6l-7.2 7.2L4 9.3c-.2-.2-.4-.1-.6 0-.1.2-.1.4 0 .6L7.6 14c.2.2.4.2.6 0l7.5-7.5c.2-.2.1-.4 0-.6-.2-.1-.4-.1-.6.1z" class="st0"/>
</svg>
