<svg class="empty_leaderBoard" xmlns="http://www.w3.org/2000/svg" viewBox="0 0 198.8 167.5"><path style="fill: rgb(242, 242, 242); transform-origin: 0px 0px;" class="stagger1" d="M81.8,1.9h56.5v2.3H81.8V1.9z M140.7,1.9h4.9v2.3h-4.9V1.9z M147.9,1.9h4.9v2.3h-4.9V1.9z" transform="matrix(1,0,0,1,0,0)"></path> <path style="fill: rgb(242, 242, 242); transform-origin: 0px 0px;" class="stagger1" d="M137.3,42.4c-2.4,0.6-2.9,1.1-3.5,3.5c-0.6-2.4-1.1-2.9-3.5-3.5	c2.4-0.6,2.9-1.1,3.5-3.5C134.4,41.3,134.9,41.8,137.3,42.4z" transform="matrix(1,0,0,1,0,0)"></path> <path style="fill: rgb(242, 242, 242); transform-origin: 0px 0px;" class="stagger1" d="M35.7,55l-9.1-9l9.1-9.1l9.1,9.1C44.8,46,35.7,55,35.7,55z M29.7,46l6,6l6-6l-6-6L29.7,46z" transform="matrix(1,0,0,1,0,0)"></path> <path style="fill: rgb(242, 242, 242); transform-origin: 0px 0px;" class="stagger1" d="M60.8,32c-2.4,0.6-2.9,1.1-3.5,3.5c-0.6-2.4-1.1-2.9-3.5-3.5 c2.4-0.6,2.9-1.1,3.5-3.5C57.9,30.9,58.4,31.4,60.8,32z" transform="matrix(1,0,0,1,0,0)"></path> <path style="fill: rgb(242, 242, 242); transform-origin: 0px 0px;" class="stagger1" d="M24,94.1c-3.9,1-4.7,1.9-5.7,5.7c-1-3.9-1.9-4.7-5.7-5.7 c3.9-1,4.7-1.9,5.7-5.7C19.3,92.2,20.1,93.1,24,94.1z" transform="matrix(1,0,0,1,0,0)"></path> <path style="fill: rgb(242, 242, 242); transform-origin: 0px 0px;" class="stagger1" d="M87.7,41.5c-4,1.1-4.9,1.9-5.9,5.9c-1.1-4-1.9-4.9-5.9-5.9 c4-1.1,4.9-1.9,5.9-5.9C82.8,39.5,83.7,40.4,87.7,41.5z" transform="matrix(1,0,0,1,0,0)"></path> <path style="fill: rgb(242, 242, 242); transform-origin: 0px 0px;" class="stagger1" d="M158.6,46.1c1.4,0,2.5,1.1,2.5,2.5s-1.1,2.5-2.5,2.5 s-2.5-1.1-2.5-2.5S157.2,46.1,158.6,46.1z" transform="matrix(1,0,0,1,0,0)"></path> <path style="fill: rgb(242, 242, 242); transform-origin: 0px 0px;" class="stagger1" d="M186.9,72.1v11.4l9.9-5.7L186.9,72.1z M189.1,75.9l3.3,1.9l-3.3,1.9V75.9z" transform="matrix(1,0,0,1,0,0)"></path> <path style="fill: rgb(242, 242, 242); transform-origin: 0px 0px;" class="stagger1" d="M146,26.3v11.4l9.9-5.7L146,26.3z M148.2,30.1l3.3,1.9l-3.3,1.9V30.1z" transform="matrix(1,0,0,1,0,0)"></path> <path style="fill: rgb(242, 242, 242); transform-origin: 0px 0px;" class="stagger1" d="M164.3,16.5l9.9,5.7V10.8L164.3,16.5z M172.1,18.4l-3.3-1.9l3.3-1.9V18.4z" transform="matrix(1,0,0,1,0,0)"></path> <path style="fill: rgb(242, 242, 242); transform-origin: 0px 0px;" class="stagger1" d="M58.4,15.1h-2.3c-0.1-0.1-0.6-0.3-0.9-0.5c-0.9-0.4-2.2-1.1-2.2-2.5s1.3-2.1,2.2-2.5 c0.3-0.1,0.7-0.3,0.9-0.5c-0.2-0.1-0.6-0.4-0.9-0.5C54.3,8.2,53,7.5,53,6.1s1.3-2.1,2.2-2.5c0.3-0.2,0.8-0.4,0.9-0.5L58.4,3 c0,1.5-1.3,2.1-2.2,2.5C56,5.7,55.6,5.9,55.4,6c0.2,0.1,0.6,0.4,0.9,0.5c0.9,0.4,2.2,1.1,2.2,2.5c0,1.5-1.3,2.1-2.2,2.5 c-0.3,0.1-0.7,0.3-0.9,0.5c0.2,0.1,0.6,0.4,0.9,0.5C57.1,13,58.4,13.6,58.4,15.1z" transform="matrix(1,0,0,1,0,0)"></path> <path style="fill: rgb(242, 242, 242); transform-origin: 0px 0px;" class="stagger1" d="M133.8,16.6h-2.4v-2.3h-2.3v2.3h-2.3v2.3h2.3v2.4h2.3v-2.4h2.4V16.6z" transform="matrix(1,0,0,1,0,0)"></path> <path style="fill: rgb(242, 242, 242); transform-origin: 0px 0px;" class="stagger1" d="M70.5,15.3h46.2v2.3H70.5V15.3z" transform="matrix(1,0,0,1,0,0)"></path> <g style="fill: #f2f2f2;" class="clouds"><path style="transform-origin: 0px 0px;" class="C-right" d="M125.3 104.7l64.8-.3c4 0 7.2-3.3 7.2-7.3s-3.3-7.3-7.3-7.3h-45.3c-2.4 0-4.4-2-4.4-4.4v-2.3c0-2.4 2-4.4 4.4-4.4h30c4 0 7.3-3.3 7.3-7.3 0-5-4-9-9-9h-69.4v105h78.9c6.3 0 11.4-5.1 11.4-11.4 0-6.3-5-11.3-11.3-11.4l-40.1-1.1c-2.4 0-4.4-2-4.4-4.4V135c0-2.4 2-4.4 4.4-4.4h30.1c4 0 7.3-3.2 7.3-7.3v-1.7c0-4-3.3-7.3-7.3-7.3l-47.2.3c-2.4 0-4.4-2-4.4-4.4v-1.1c-.1-2.5 1.9-4.4 4.3-4.4z" transform="matrix(1,0,0,1,0,0)"></path> <path style="transform-origin: 0px 0px;" class="C-left" d="M38.9 62.5c-4 0-7.3 3.3-7.3 7.3s3.3 7.3 7.3 7.3H68c2.4 0 4.4 2 4.4 4.4v3.7c0 2.4-2 4.4-4.4 4.4H44.8c-4 0-7.3 3.3-7.3 7.3v1.5c0 4 3.3 7.3 7.3 7.3h28.5c2.4 0 4.4 2 4.4 4.4s-2 4.4-4.4 4.4H24.9c-4 0-7.3 3.3-7.3 7.3v.5c0 4 3.3 7.3 7.3 7.3h21.5c2.4 0 4.4 2 4.4 4.4v2c0 2.4-2 4.4-4.4 4.4l-29.7-.2c-7.6 0-13.8 6.1-13.8 13.7s6.1 13.7 13.7 13.7h88v-105H38.9v-.1z" transform="matrix(1,0,0,1,0,0)"></path></g> <g id="cup"><g style="transform-origin: 0px 0px;" class="L2" transform="matrix(1,0,0,1,0,0)"><path style="fill: #F6B74E;" d="M111.1 144H87.7l1.9-21.5h19.6z"></path> <path style="fill: #D89C44;" d="M111.1 144l-1.6-17.2-.4-4.3H89.5l-.4 4.3c2.1.7 4.3 1.1 6.6 1.4 2 .2 3.5 1.9 3.5 3.9V144h11.9z"></path></g> <g style="transform-origin: 0px 0px;" class="L2" transform="matrix(1,0,0,1,0,0)"><path style="fill: #576D7E;" d="M118.9 142.1c2.1 0 3.9 1.8 3.9 3.9v13.7c0 2.1-1.8 3.9-3.9 3.9h-39c-2.1 0-3.9-1.8-3.9-3.9V146c0-2.1 1.8-3.9 3.9-3.9h39z"></path> <path style="fill: #35495C;" d="M118.9 142.1H99.4v21.5h19.5c2.1 0 3.9-1.8 3.9-3.9V146c0-2.2-1.7-3.9-3.9-3.9z"></path> <path style="fill: #B1C3D0;" d="M107.2 155.8H91.6c-2.2 0-3.9-1.7-3.9-3.9s1.7-3.9 3.9-3.9h15.6c2.2 0 3.9 1.7 3.9 3.9 0 2.1-1.7 3.9-3.9 3.9z"></path> <path style="fill: #8EADBE;" d="M101.4 155.8h-4l4-7.9h3.9zm9.7-4c0-2.2-1.7-3.9-3.9-3.9l-3.9 7.8h3.9c2.2.1 3.9-1.7 3.9-3.9z"></path></g> <g style="transform-origin: 0px 0px;" class="L2" transform="matrix(1,0,0,1,0,0)"><path style="fill: #35495C;" d="M124.8 159.7c1.1 0 2 .9 2 2v3.9c0 1.1-.9 2-2 2H74c-1.1 0-2-.9-2-2v-3.9c0-1.1.9-2 2-2h50.8z"></path> <path style="fill: #113247;" d="M124.8 159.7H99.4v2c0 2.2-1.7 3.9-3.9 3.9H72c0 1.1.9 2 2 2h50.8c1.1 0 2-.9 2-2v-3.9c0-1.2-.9-2-2-2z"></path></g> <g style="transform-origin: 0px 0px;" class="hands" transform="matrix(1,0,0,1,0,0)"><path style="fill: #FCCF63;" d="M66.2 89.3c-6.5 0-11.7-5.2-11.7-11.7V58.1h11.7v-7.8H50.6c-2.2 0-3.9 1.7-3.9 3.9v23.4c0 10.8 8.7 19.5 19.5 19.5h2v-7.8h-2z"></path> <path style="fill: #F6B74E;" d="M66.2 97.1c-1.3 0-2.6-.1-3.9-.4v-8.1c1.2.4 2.5.7 3.9.7h2v7.8h-2zm-3.9-46.8h3.9v7.8h-3.9zm85.9 0h-15.6v7.8h11.7v19.5c0 6.5-5.2 11.7-11.7 11.7h-2v7.8h2c10.8 0 19.5-8.7 19.5-19.5V54.2c.1-2.2-1.7-3.9-3.9-3.9z"></path> <path style="fill: #D89C44;" d="M132.6 97.1c1.3 0 2.6-.1 3.9-.4v-8.1c-1.2.4-2.5.7-3.9.7h-2v7.8h2zm0-46.8h3.9v7.8h-3.9z"></path></g> <g style="transform-origin: 0px 0px;" class="c_body" transform="matrix(1,0,0,1,0,0)"><path style="fill: #FCCF63;" d="M128.7 42.4H70.1c-2.1 0-3.9 1.8-3.9 3.9v44.9c0 18.3 14.9 33.2 33.2 33.2 18.3 0 33.2-14.9 33.2-33.2V46.3c0-2.1-1.7-3.9-3.9-3.9z"></path> <path style="fill: #F6B74E;" d="M99.4 46.3v63.2c0 5.2-5 9.1-10 7.5-12.5-4-21.9-15.2-23-28.7-.1 1-.1 1.9-.1 2.9 0 18.3 14.9 33.2 33.2 33.2 1.3 0 2.6-.1 3.9-.2 16.5-1.9 29.3-15.9 29.3-33V46.3H99.4z"></path> <path style="fill: #FFE3A5;" d="M76 77.6c-1.1 0-2-.9-2-2V52.2c0-1.1.9-2 2-2s2 .9 2 2v23.4c-.1 1.1-1 2-2 2z"></path> <path style="fill: #D89C44;" d="M105.3 65.9c0-2.2-1.7-3.9-3.9-3.9h-7.8c-2.2 0-3.9 1.7-3.9 3.9s1.7 3.9 3.9 3.9h3.9v19.5c0 2.2 1.7 3.9 3.9 3.9s3.9-1.7 3.9-3.9V65.9c-.1 0 0 0 0 0z"></path></g></g></svg>